# This file uses centimeters as units for non-parametric coordinates.

mtllib shelftexture.mtl
g default
v -1.585089 0.000000 0.500000
v -1.414911 0.000000 0.500000
v -1.585089 5.927430 0.500000
v -1.414911 5.927430 0.500000
v -1.585089 5.927430 -0.500000
v -1.414911 5.927430 -0.500000
v -1.585089 0.000000 -0.500000
v -1.414911 0.000000 -0.500000
v 1.414911 0.000000 0.500000
v 1.585089 0.000000 0.500000
v 1.414911 5.927430 0.500000
v 1.585089 5.927430 0.500000
v 1.414911 5.927430 -0.500000
v 1.585089 5.927430 -0.500000
v 1.414911 0.000000 -0.500000
v 1.585089 0.000000 -0.500000
vt 0.137442 0.062564
vt 0.149722 0.062564
vt 0.137442 0.664893
vt 0.137442 0.686195
vt 0.035290 0.664893
vt 0.035290 0.686195
vt 0.252278 0.044597
vt 0.251874 0.062564
vt 0.150126 0.044597
vt 0.149722 0.664893
vt 0.035290 0.062564
vt 0.264154 0.664893
vt 0.251874 0.664893
vt 0.264154 0.062564
vt 0.137442 0.062564
vt 0.149722 0.062564
vt 0.149722 0.664893
vt 0.137442 0.664893
vt 0.137442 0.686195
vt 0.035290 0.686195
vt 0.035290 0.664893
vt 0.264154 0.664893
vt 0.251874 0.664893
vt 0.251874 0.062564
vt 0.264154 0.062564
vt 0.252278 0.044597
vt 0.150126 0.044597
vt 0.035290 0.062564
vn 0.000000 0.000000 1.000000
vn 0.000000 0.000000 1.000000
vn 0.000000 0.000000 1.000000
vn 0.000000 0.000000 1.000000
vn 0.000000 1.000000 0.000000
vn 0.000000 1.000000 0.000000
vn 0.000000 1.000000 0.000000
vn 0.000000 1.000000 0.000000
vn 0.000000 0.000000 -1.000000
vn 0.000000 0.000000 -1.000000
vn 0.000000 0.000000 -1.000000
vn 0.000000 0.000000 -1.000000
vn 0.000000 -1.000000 0.000000
vn 0.000000 -1.000000 0.000000
vn 0.000000 -1.000000 0.000000
vn 0.000000 -1.000000 0.000000
vn 1.000000 0.000000 0.000000
vn 1.000000 0.000000 0.000000
vn 1.000000 0.000000 0.000000
vn 1.000000 0.000000 0.000000
vn -1.000000 0.000000 0.000000
vn -1.000000 0.000000 0.000000
vn -1.000000 0.000000 0.000000
vn -1.000000 0.000000 0.000000
vn 0.000000 0.000000 1.000000
vn 0.000000 0.000000 1.000000
vn 0.000000 0.000000 1.000000
vn 0.000000 0.000000 1.000000
vn 0.000000 1.000000 0.000000
vn 0.000000 1.000000 0.000000
vn 0.000000 1.000000 0.000000
vn 0.000000 1.000000 0.000000
vn 0.000000 0.000000 -1.000000
vn 0.000000 0.000000 -1.000000
vn 0.000000 0.000000 -1.000000
vn 0.000000 0.000000 -1.000000
vn 0.000000 -1.000000 0.000000
vn 0.000000 -1.000000 0.000000
vn 0.000000 -1.000000 0.000000
vn 0.000000 -1.000000 0.000000
vn 1.000000 0.000000 0.000000
vn 1.000000 0.000000 0.000000
vn 1.000000 0.000000 0.000000
vn 1.000000 0.000000 0.000000
vn -1.000000 0.000000 0.000000
vn -1.000000 0.000000 0.000000
vn -1.000000 0.000000 0.000000
vn -1.000000 0.000000 0.000000
s off
g pCube11
usemtl lambert2SG
f 1/1/1 2/2/2 4/10/3 3/3/4
f 3/3/5 4/4/6 6/6/7 5/5/8
f 5/12/9 6/13/10 8/8/11 7/14/12
f 7/7/13 8/8/14 2/2/15 1/9/16
f 2/2/17 8/8/18 6/13/19 4/10/20
f 7/11/21 1/1/22 3/3/23 5/5/24
f 9/15/25 10/16/26 12/17/27 11/18/28
f 11/18/29 12/19/30 14/20/31 13/21/32
f 13/22/33 14/23/34 16/24/35 15/25/36
f 15/26/37 16/24/38 10/16/39 9/27/40
f 10/16/41 16/24/42 14/23/43 12/17/44
f 15/28/45 9/15/46 11/18/47 13/21/48
g default
v -1.585089 5.927430 0.500000
v -1.585089 5.757252 0.500000
v 1.564457 5.927430 0.500000
v 1.564457 5.757252 0.500000
v 1.564457 5.927430 -0.500000
v 1.564457 5.757252 -0.500000
v -1.585089 5.927430 -0.500000
v -1.585089 5.757252 -0.500000
v -1.585089 5.170178 0.500000
v -1.585089 5.000000 0.500000
v 1.564457 5.170178 0.500000
v 1.564457 5.000000 0.500000
v 1.564457 5.170178 -0.500000
v 1.564457 5.000000 -0.500000
v -1.585089 5.170178 -0.500000
v -1.585089 5.000000 -0.500000
v -1.585089 4.170178 0.500000
v -1.585089 4.000000 0.500000
v 1.564457 4.170178 0.500000
v 1.564457 4.000000 0.500000
v 1.564457 4.170178 -0.500000
v 1.564457 4.000000 -0.500000
v -1.585089 4.170178 -0.500000
v -1.585089 4.000000 -0.500000
v -1.585089 3.170178 0.500000
v -1.585089 3.000000 0.500000
v 1.564457 3.170178 0.500000
v 1.564457 3.000000 0.500000
v 1.564457 3.170178 -0.500000
v 1.564457 3.000000 -0.500000
v -1.585089 3.170178 -0.500000
v -1.585089 3.000000 -0.500000
v -1.585089 2.170178 0.500000
v -1.585089 2.000000 0.500000
v 1.564457 2.170178 0.500000
v 1.564457 2.000000 0.500000
v 1.564457 2.170178 -0.500000
v 1.564457 2.000000 -0.500000
v -1.585089 2.170178 -0.500000
v -1.585089 2.000000 -0.500000
v -1.585089 1.170178 0.500000
v -1.585089 1.000000 0.500000
v 1.564457 1.170178 0.500000
v 1.564457 1.000000 0.500000
v 1.564457 1.170178 -0.500000
v 1.564457 1.000000 -0.500000
v -1.585089 1.170178 -0.500000
v -1.585089 1.000000 -0.500000
v -1.585089 0.170178 0.500000
v -1.585089 0.000000 0.500000
v 1.564457 0.170178 0.500000
v 1.564457 0.000000 0.500000
v 1.564457 0.170178 -0.500000
v 1.564457 0.000000 -0.500000
v -1.585089 0.170178 -0.500000
v -1.585089 0.000000 -0.500000
vt 0.526779 0.939387
vt 0.527037 0.921997
vt 0.852188 0.705006
vt 0.866960 0.705225
vt 0.850670 0.807197
vt 0.865441 0.807416
vt 0.510588 0.819135
vt 0.528555 0.819806
vt 0.509069 0.921326
vt 0.848893 0.926779
vt 0.848635 0.944170
vt 0.528814 0.802415
vt 0.850411 0.824588
vt 0.530332 0.700224
vt 0.526779 0.939387
vt 0.527037 0.921997
vt 0.848893 0.926779
vt 0.848635 0.944170
vt 0.852188 0.705006
vt 0.866960 0.705225
vt 0.865441 0.807416
vt 0.850670 0.807197
vt 0.850411 0.824588
vt 0.528555 0.819806
vt 0.528814 0.802415
vt 0.510588 0.819135
vt 0.509069 0.921326
vt 0.530332 0.700224
vt 0.526779 0.939387
vt 0.527037 0.921997
vt 0.848893 0.926779
vt 0.848635 0.944170
vt 0.852188 0.705006
vt 0.866960 0.705225
vt 0.865441 0.807416
vt 0.850670 0.807197
vt 0.850411 0.824588
vt 0.528555 0.819806
vt 0.528814 0.802415
vt 0.510588 0.819135
vt 0.509069 0.921326
vt 0.530332 0.700224
vt 0.526779 0.939387
vt 0.527037 0.921997
vt 0.848893 0.926779
vt 0.848635 0.944170
vt 0.852188 0.705006
vt 0.866960 0.705225
vt 0.865441 0.807416
vt 0.850670 0.807197
vt 0.850411 0.824588
vt 0.528555 0.819806
vt 0.528814 0.802415
vt 0.510588 0.819135
vt 0.509069 0.921326
vt 0.530332 0.700224
vt 0.526779 0.939387
vt 0.527037 0.921997
vt 0.848893 0.926779
vt 0.848635 0.944170
vt 0.852188 0.705006
vt 0.866960 0.705225
vt 0.865441 0.807416
vt 0.850670 0.807197
vt 0.850411 0.824588
vt 0.528555 0.819806
vt 0.528814 0.802415
vt 0.510588 0.819135
vt 0.509069 0.921326
vt 0.530332 0.700224
vt 0.526779 0.939387
vt 0.527037 0.921997
vt 0.848893 0.926779
vt 0.848635 0.944170
vt 0.852188 0.705006
vt 0.866960 0.705225
vt 0.865441 0.807416
vt 0.850670 0.807197
vt 0.850411 0.824588
vt 0.528555 0.819806
vt 0.528814 0.802415
vt 0.510588 0.819135
vt 0.509069 0.921326
vt 0.530332 0.700224
vt 0.526779 0.939387
vt 0.527037 0.921997
vt 0.848893 0.926779
vt 0.848635 0.944170
vt 0.852188 0.705006
vt 0.866960 0.705225
vt 0.865441 0.807416
vt 0.850670 0.807197
vt 0.850411 0.824588
vt 0.528555 0.819806
vt 0.528814 0.802415
vt 0.510588 0.819135
vt 0.509069 0.921326
vt 0.530332 0.700224
vn 0.000000 0.000000 1.000000
vn 0.000000 0.000000 1.000000
vn 0.000000 0.000000 1.000000
vn 0.000000 0.000000 1.000000
vn 1.000000 0.000000 0.000000
vn 1.000000 0.000000 0.000000
vn 1.000000 0.000000 0.000000
vn 1.000000 0.000000 0.000000
vn 0.000000 0.000000 -1.000000
vn 0.000000 0.000000 -1.000000
vn 0.000000 0.000000 -1.000000
vn 0.000000 0.000000 -1.000000
vn -1.000000 0.000000 0.000000
vn -1.000000 0.000000 0.000000
vn -1.000000 0.000000 0.000000
vn -1.000000 0.000000 0.000000
vn 0.000000 -1.000000 0.000000
vn 0.000000 -1.000000 0.000000
vn 0.000000 -1.000000 0.000000
vn 0.000000 -1.000000 0.000000
vn 0.000000 1.000000 0.000000
vn 0.000000 1.000000 0.000000
vn 0.000000 1.000000 0.000000
vn 0.000000 1.000000 0.000000
vn 0.000000 0.000000 1.000000
vn 0.000000 0.000000 1.000000
vn 0.000000 0.000000 1.000000
vn 0.000000 0.000000 1.000000
vn 1.000000 0.000000 0.000000
vn 1.000000 0.000000 0.000000
vn 1.000000 0.000000 0.000000
vn 1.000000 0.000000 0.000000
vn 0.000000 0.000000 -1.000000
vn 0.000000 0.000000 -1.000000
vn 0.000000 0.000000 -1.000000
vn 0.000000 0.000000 -1.000000
vn -1.000000 0.000000 0.000000
vn -1.000000 0.000000 0.000000
vn -1.000000 0.000000 0.000000
vn -1.000000 0.000000 0.000000
vn 0.000000 -1.000000 0.000000
vn 0.000000 -1.000000 0.000000
vn 0.000000 -1.000000 0.000000
vn 0.000000 -1.000000 0.000000
vn 0.000000 1.000000 0.000000
vn 0.000000 1.000000 0.000000
vn 0.000000 1.000000 0.000000
vn 0.000000 1.000000 0.000000
vn 0.000000 0.000000 1.000000
vn 0.000000 0.000000 1.000000
vn 0.000000 0.000000 1.000000
vn 0.000000 0.000000 1.000000
vn 1.000000 0.000000 0.000000
vn 1.000000 0.000000 0.000000
vn 1.000000 0.000000 0.000000
vn 1.000000 0.000000 0.000000
vn 0.000000 0.000000 -1.000000
vn 0.000000 0.000000 -1.000000
vn 0.000000 0.000000 -1.000000
vn 0.000000 0.000000 -1.000000
vn -1.000000 0.000000 0.000000
vn -1.000000 0.000000 0.000000
vn -1.000000 0.000000 0.000000
vn -1.000000 0.000000 0.000000
vn 0.000000 -1.000000 0.000000
vn 0.000000 -1.000000 0.000000
vn 0.000000 -1.000000 0.000000
vn 0.000000 -1.000000 0.000000
vn 0.000000 1.000000 0.000000
vn 0.000000 1.000000 0.000000
vn 0.000000 1.000000 0.000000
vn 0.000000 1.000000 0.000000
vn 0.000000 0.000000 1.000000
vn 0.000000 0.000000 1.000000
vn 0.000000 0.000000 1.000000
vn 0.000000 0.000000 1.000000
vn 1.000000 0.000000 0.000000
vn 1.000000 0.000000 0.000000
vn 1.000000 0.000000 0.000000
vn 1.000000 0.000000 0.000000
vn 0.000000 0.000000 -1.000000
vn 0.000000 0.000000 -1.000000
vn 0.000000 0.000000 -1.000000
vn 0.000000 0.000000 -1.000000
vn -1.000000 0.000000 0.000000
vn -1.000000 0.000000 0.000000
vn -1.000000 0.000000 0.000000
vn -1.000000 0.000000 0.000000
vn 0.000000 -1.000000 0.000000
vn 0.000000 -1.000000 0.000000
vn 0.000000 -1.000000 0.000000
vn 0.000000 -1.000000 0.000000
vn 0.000000 1.000000 0.000000
vn 0.000000 1.000000 0.000000
vn 0.000000 1.000000 0.000000
vn 0.000000 1.000000 0.000000
vn 0.000000 0.000000 1.000000
vn 0.000000 0.000000 1.000000
vn 0.000000 0.000000 1.000000
vn 0.000000 0.000000 1.000000
vn 1.000000 0.000000 0.000000
vn 1.000000 0.000000 0.000000
vn 1.000000 0.000000 0.000000
vn 1.000000 0.000000 0.000000
vn 0.000000 0.000000 -1.000000
vn 0.000000 0.000000 -1.000000
vn 0.000000 0.000000 -1.000000
vn 0.000000 0.000000 -1.000000
vn -1.000000 0.000000 0.000000
vn -1.000000 0.000000 0.000000
vn -1.000000 0.000000 0.000000
vn -1.000000 0.000000 0.000000
vn 0.000000 -1.000000 0.000000
vn 0.000000 -1.000000 0.000000
vn 0.000000 -1.000000 0.000000
vn 0.000000 -1.000000 0.000000
vn 0.000000 1.000000 0.000000
vn 0.000000 1.000000 0.000000
vn 0.000000 1.000000 0.000000
vn 0.000000 1.000000 0.000000
vn 0.000000 0.000000 1.000000
vn 0.000000 0.000000 1.000000
vn 0.000000 0.000000 1.000000
vn 0.000000 0.000000 1.000000
vn 1.000000 0.000000 0.000000
vn 1.000000 0.000000 0.000000
vn 1.000000 0.000000 0.000000
vn 1.000000 0.000000 0.000000
vn 0.000000 0.000000 -1.000000
vn 0.000000 0.000000 -1.000000
vn 0.000000 0.000000 -1.000000
vn 0.000000 0.000000 -1.000000
vn -1.000000 0.000000 0.000000
vn -1.000000 0.000000 0.000000
vn -1.000000 0.000000 0.000000
vn -1.000000 0.000000 0.000000
vn 0.000000 -1.000000 0.000000
vn 0.000000 -1.000000 0.000000
vn 0.000000 -1.000000 0.000000
vn 0.000000 -1.000000 0.000000
vn 0.000000 1.000000 0.000000
vn 0.000000 1.000000 0.000000
vn 0.000000 1.000000 0.000000
vn 0.000000 1.000000 0.000000
vn 0.000000 0.000000 1.000000
vn 0.000000 0.000000 1.000000
vn 0.000000 0.000000 1.000000
vn 0.000000 0.000000 1.000000
vn 1.000000 0.000000 0.000000
vn 1.000000 0.000000 0.000000
vn 1.000000 0.000000 0.000000
vn 1.000000 0.000000 0.000000
vn 0.000000 0.000000 -1.000000
vn 0.000000 0.000000 -1.000000
vn 0.000000 0.000000 -1.000000
vn 0.000000 0.000000 -1.000000
vn -1.000000 0.000000 0.000000
vn -1.000000 0.000000 0.000000
vn -1.000000 0.000000 0.000000
vn -1.000000 0.000000 0.000000
vn 0.000000 -1.000000 0.000000
vn 0.000000 -1.000000 0.000000
vn 0.000000 -1.000000 0.000000
vn 0.000000 -1.000000 0.000000
vn 0.000000 1.000000 0.000000
vn 0.000000 1.000000 0.000000
vn 0.000000 1.000000 0.000000
vn 0.000000 1.000000 0.000000
s off
g shelves
usemtl lambert2SG
f 17/29/49 18/30/50 20/38/51 19/39/52
f 19/31/53 20/32/54 22/34/55 21/33/56
f 21/33/57 22/41/58 24/36/59 23/40/60
f 23/35/61 24/36/62 18/30/63 17/37/64
f 18/30/65 24/36/66 22/41/67 20/38/68
f 23/40/69 17/42/70 19/31/71 21/33/72
f 25/43/73 26/44/74 28/45/75 27/46/76
f 27/47/77 28/48/78 30/49/79 29/50/80
f 29/50/81 30/51/82 32/52/83 31/53/84
f 31/54/85 32/52/86 26/44/87 25/55/88
f 26/44/89 32/52/90 30/51/91 28/45/92
f 31/53/93 25/56/94 27/47/95 29/50/96
f 33/57/97 34/58/98 36/59/99 35/60/100
f 35/61/101 36/62/102 38/63/103 37/64/104
f 37/64/105 38/65/106 40/66/107 39/67/108
f 39/68/109 40/66/110 34/58/111 33/69/112
f 34/58/113 40/66/114 38/65/115 36/59/116
f 39/67/117 33/70/118 35/61/119 37/64/120
f 41/71/121 42/72/122 44/73/123 43/74/124
f 43/75/125 44/76/126 46/77/127 45/78/128
f 45/78/129 46/79/130 48/80/131 47/81/132
f 47/82/133 48/80/134 42/72/135 41/83/136
f 42/72/137 48/80/138 46/79/139 44/73/140
f 47/81/141 41/84/142 43/75/143 45/78/144
f 49/85/145 50/86/146 52/87/147 51/88/148
f 51/89/149 52/90/150 54/91/151 53/92/152
f 53/92/153 54/93/154 56/94/155 55/95/156
f 55/96/157 56/94/158 50/86/159 49/97/160
f 50/86/161 56/94/162 54/93/163 52/87/164
f 55/95/165 49/98/166 51/89/167 53/92/168
f 57/99/169 58/100/170 60/101/171 59/102/172
f 59/103/173 60/104/174 62/105/175 61/106/176
f 61/106/177 62/107/178 64/108/179 63/109/180
f 63/110/181 64/108/182 58/100/183 57/111/184
f 58/100/185 64/108/186 62/107/187 60/101/188
f 63/109/189 57/112/190 59/103/191 61/106/192
f 65/113/193 66/114/194 68/115/195 67/116/196
f 67/117/197 68/118/198 70/119/199 69/120/200
f 69/120/201 70/121/202 72/122/203 71/123/204
f 71/124/205 72/122/206 66/114/207 65/125/208
f 66/114/209 72/122/210 70/121/211 68/115/212
f 71/123/213 65/126/214 67/117/215 69/120/216
g default
v -1.567189 0.000000 -0.500000
v -1.567189 0.000000 -0.329821
v -1.567189 5.927430 -0.500000
v -1.567189 5.927430 -0.329821
v 1.567189 5.927430 -0.500000
v 1.567189 5.927430 -0.329821
v 1.567189 0.000000 -0.500000
v 1.567189 0.000000 -0.329821
vt 0.296456 0.032082
vt 0.313735 0.032069
vt 0.314204 0.633890
vt 0.296926 0.633904
vt 0.632442 0.633642
vt 0.631973 0.031821
vt 0.649252 0.031807
vt 0.967490 0.031559
vt 0.967959 0.633381
vt 0.649721 0.633629
vt 0.314218 0.651169
vt 0.632456 0.650921
vt 0.631960 0.014542
vt 0.313722 0.014790
vn -1.000000 0.000000 0.000000
vn -1.000000 0.000000 0.000000
vn -1.000000 0.000000 0.000000
vn -1.000000 0.000000 0.000000
vn 0.000000 1.000000 0.000000
vn 0.000000 1.000000 0.000000
vn 0.000000 1.000000 0.000000
vn 0.000000 1.000000 0.000000
vn 1.000000 0.000000 0.000000
vn 1.000000 0.000000 0.000000
vn 1.000000 0.000000 0.000000
vn 1.000000 0.000000 0.000000
vn 0.000000 -1.000000 0.000000
vn 0.000000 -1.000000 0.000000
vn 0.000000 -1.000000 0.000000
vn 0.000000 -1.000000 0.000000
vn 0.000000 0.000000 1.000000
vn 0.000000 0.000000 1.000000
vn 0.000000 0.000000 1.000000
vn 0.000000 0.000000 1.000000
vn 0.000000 0.000000 -1.000000
vn 0.000000 0.000000 -1.000000
vn 0.000000 0.000000 -1.000000
vn 0.000000 0.000000 -1.000000
s off
g shelfback
usemtl lambert2SG
f 73/127/217 74/128/218 76/129/219 75/130/220
f 75/137/221 76/129/222 78/131/223 77/138/224
f 77/136/225 78/131/226 80/132/227 79/133/228
f 79/139/229 80/132/230 74/128/231 73/140/232
f 74/128/233 80/132/234 78/131/235 76/129/236
f 79/133/237 73/134/238 75/135/239 77/136/240
